Coordinates
version=1
nRows=17
nColumns=38
inDegrees=no

Units are S.I. units (second, meters, Newtons, ...)
If the header above contains a line with 'inDegrees', this indicates whether rotational values are in degrees (yes) or radians (no).

endheader
time	pelvis_tilt	pelvis_list	pelvis_rotation	pelvis_tx	pelvis_ty	pelvis_tz	hip_flexion_r	hip_adduction_r	hip_rotation_r	knee_angle_r	ankle_angle_r	subtalar_angle_r	mtp_angle_r	hip_flexion_l	hip_adduction_l	hip_rotation_l	knee_angle_l	ankle_angle_l	subtalar_angle_l	mtp_angle_l	lumbar_extension	lumbar_bending	lumbar_rotation	arm_flex_r	arm_add_r	arm_rot_r	elbow_flex_r	pro_sup_r	wrist_flex_r	wrist_dev_r	arm_flex_l	arm_add_l	arm_rot_l	elbow_flex_l	pro_sup_l	wrist_flex_l	wrist_dev_l
10	-1.24028	1.52941	-0.304756	0.798167	0.927496	0.944369	-0.0151011	0.00706344	-0.201918	0.331591	-0.262319	0	0	-0.131114	-0.0627242	0.041592	0.06338	-0.373864	0	0	-0.584999	0.182424	-0.154106	0.680592	-0.154838	0.167037	0.885134	1.5708	0	0	0.401556	-0.503675	0.147198	1.04242	1.5708	0	0
10.01	-1.26777	1.52989	-0.27719	0.798303	0.9263	0.944167	-0.0154945	0.00692348	-0.202047	0.331158	-0.261645	0	0	-0.132389	-0.06244	0.041696	0.061208	-0.373926	0	0	-0.583065	0.182156	-0.154368	0.676395	-0.155571	0.166172	0.886925	1.5708	0	0	0.397804	-0.501778	0.146351	1.04305	1.5708	0	0
10.02	-1.29922	1.53045	-0.245543	0.79849	0.925096	0.943957	-0.0157093	0.00662605	-0.201937	0.330717	-0.260922	0	0	-0.133666	-0.062004	0.0420896	0.0585352	-0.374038	0	0	-0.580959	0.181839	-0.154721	0.671665	-0.156675	0.165534	0.889606	1.5708	0	0	0.39337	-0.500288	0.145519	1.04471	1.5708	0	0
10.03	-1.33483	1.53106	-0.209721	0.798698	0.92387	0.943737	-0.0157755	0.00623217	-0.201589	0.330234	-0.260199	0	0	-0.134928	-0.0614657	0.0426843	0.0555463	-0.374326	0	0	-0.578573	0.1816	-0.155408	0.666724	-0.157919	0.165734	0.89245	1.5708	0	0	0.38844	-0.499116	0.144392	1.04646	1.5708	0	0
10.04	-1.37404	1.53164	-0.170263	0.798918	0.922612	0.94352	-0.0157064	0.00585211	-0.201046	0.329918	-0.259466	0	0	-0.136159	-0.0609502	0.0433253	0.0523762	-0.374819	0	0	-0.575975	0.181373	-0.156426	0.661571	-0.159568	0.167067	0.895229	1.5708	0	0	0.382919	-0.498313	0.142949	1.04847	1.5708	0	0
10.05	-1.41343	1.53213	-0.130527	0.799162	0.921329	0.943314	-0.0157234	0.00554975	-0.200333	0.329555	-0.258733	0	0	-0.137457	-0.0605069	0.0442575	0.0491579	-0.375395	0	0	-0.57346	0.181189	-0.15759	0.656126	-0.161695	0.168757	0.898075	1.5708	0	0	0.376666	-0.49804	0.141699	1.05112	1.5708	0	0
10.06	-1.44859	1.53249	-0.0949388	0.799421	0.92004	0.943127	-0.015986	0.00532561	-0.199266	0.329186	-0.25795	0	0	-0.138962	-0.0601288	0.0454518	0.0459508	-0.376054	0	0	-0.57128	0.1811	-0.158869	0.650615	-0.163819	0.169824	0.90088	1.5708	0	0	0.370153	-0.497922	0.141013	1.05405	1.5708	0	0
10.07	-1.4757	1.53284	-0.0674095	0.799689	0.918754	0.94296	-0.0163075	0.00497596	-0.198085	0.329573	-0.25706	0	0	-0.140806	-0.0596881	0.0466448	0.0428056	-0.376787	0	0	-0.569547	0.180827	-0.160221	0.644747	-0.165778	0.170786	0.90384	1.5708	0	0	0.363575	-0.497615	0.140865	1.05665	1.5708	0	0
10.08	-1.50023	1.53307	-0.042264	0.8	0.917462	0.942808	-0.0167557	0.0046841	-0.197483	0.330043	-0.256107	0	0	-0.142757	-0.059327	0.0481464	0.0396979	-0.377579	0	0	-0.567871	0.180671	-0.161638	0.638621	-0.167475	0.171409	0.906744	1.5708	0	0	0.356635	-0.497097	0.140999	1.05865	1.5708	0	0
10.09	-1.52362	1.53317	-0.0181491	0.800335	0.916171	0.942649	-0.0172453	0.00441846	-0.197453	0.330553	-0.255153	0	0	-0.144781	-0.0590366	0.0498931	0.0365958	-0.378368	0	0	-0.566109	0.18065	-0.162899	0.632375	-0.16918	0.17209	0.909814	1.5708	0	0	0.349743	-0.496385	0.141449	1.05997	1.5708	0	0
10.1	-1.55273	1.53314	0.0118086	0.800692	0.914873	0.942458	-0.0173804	0.00420684	-0.197756	0.331303	-0.25421	0	0	-0.14664	-0.0588432	0.0517128	0.0334174	-0.37905	0	0	-0.563865	0.180919	-0.16408	0.626346	-0.17059	0.172508	0.912548	1.5708	0	0	0.343733	-0.495181	0.141979	1.06082	1.5708	0	0
10.11	-1.58634	1.53289	0.0464478	0.801077	0.913557	0.942239	-0.0172856	0.00411879	-0.198389	0.332176	-0.253224	0	0	-0.14839	-0.0588286	0.0536184	0.0301602	-0.379546	0	0	-0.561234	0.181425	-0.165268	0.62039	-0.171663	0.172312	0.915017	1.5708	0	0	0.337652	-0.494142	0.142393	1.06184	1.5708	0	0
10.12	-1.61873	1.53235	0.0801002	0.801503	0.912239	0.942	-0.0171854	0.00423813	-0.199162	0.333181	-0.252168	0	0	-0.150326	-0.0590817	0.0556232	0.0266128	-0.379847	0	0	-0.558695	0.182278	-0.16653	0.614637	-0.173017	0.172432	0.917629	1.5708	0	0	0.331357	-0.493147	0.142338	1.06273	1.5708	0	0
10.13	-1.64777	1.53149	0.110409	0.801946	0.91094	0.941746	-0.0172412	0.00470487	-0.199521	0.333908	-0.251199	0	0	-0.152495	-0.059577	0.0576109	0.0227045	-0.380022	0	0	-0.556425	0.183406	-0.167624	0.609161	-0.174684	0.172947	0.920196	1.5708	0	0	0.325041	-0.492116	0.141659	1.0638	1.5708	0	0
10.14	-1.67233	1.53048	0.136241	0.802385	0.90967	0.941498	-0.0175084	0.00542613	-0.199399	0.334353	-0.250367	0	0	-0.154924	-0.0602374	0.0594547	0.0183549	-0.380304	0	0	-0.554275	0.184571	-0.168679	0.603959	-0.176396	0.173754	0.922678	1.5708	0	0	0.319482	-0.490894	0.140608	1.06553	1.5708	0	0
10.15	-1.69426	1.52938	0.15942	0.802826	0.908404	0.941249	-0.0175332	0.00625212	-0.199191	0.33546	-0.249241	0	0	-0.157933	-0.0610374	0.0615599	0.0126742	-0.381303	0	0	-0.552342	0.18564	-0.16974	0.59863	-0.177708	0.173707	0.92559	1.5708	0	0	0.313474	-0.489811	0.138842	1.06824	1.5708	0	0
10.16	-1.72175	1.52834	0.188199	0.803354	0.907157	0.940985	-0.0167971	0.00655796	-0.19917	0.337399	-0.248479	0	0	-0.160542	-0.0616663	0.0630167	0.00730114	-0.382117	0	0	-0.549923	0.18695	-0.171292	0.593939	-0.178099	0.172845	0.927484	1.5708	0	0	0.307416	-0.489431	0.138169	1.07011	1.5708	0	0
